<svg xmlns="http://www.w3.org/2000/svg" viewBox="0 0 1000 400" width="100%" height="auto">
  <!-- Cloud -->
  <g id="cloud">
    <path fill="#FFFFFF" d="M113.2,201.5c-13.8,0-24.9-11.2-24.9-24.9c0-8.2,4-15.6,10.2-20.2c-1.6-4.3-2.5-8.9-2.5-13.6
      c0-21.9,17.8-39.7,39.7-39.7c4.1,0,8.1,0.6,11.8,1.7c6.5-13.9,20.4-23.6,36.5-23.6c22.3,0,40.5,18.2,40.5,40.5
      c0,2.6-0.3,5.2-0.9,7.7c2.6,0.3,5.2,0.6,7.7,1c17.9,3.2,31.6,18.7,31.6,37c0,20.9-16.9,37.9-37.9,37.9H113.2z"/>
  </g>
  
  <!-- Animation -->
  <animateMotion xlink:href="#cloud" dur="10s" repeatCount="indefinite" path="M0,0 Q100,100 200,0 T400,0" />
</svg>
